# Made in Blockbench 5.0.3
mtllib girderwall.mtl

o GirderWall
v 0.1250000000000001 1 0.4374999999999999
v 0.1250000000000001 0 0.4374999999999999
v 0.06250000000000014 0 0.4374999999999999
v -0.12499999999999986 0 0.5
v 0.12500000000000014 0 0.5
v 0.12500000000000014 1 0.5
v 0.1250000000000001 0 0.25
v -0.12499999999999993 0 0.25
v -0.12499999999999993 1 0.25
v -0.12499999999999986 1 0.5
v -0.12499999999999986 1 0.4375
v 0.1250000000000001 0 0.31249999999999994
v 0.1250000000000001 1 0.31249999999999994
v 0.06250000000000008 1 0.3125
v 0.1250000000000001 1 0.25
v -0.12499999999999993 0 0.3125
v -0.12499999999999993 1 0.3125
v -0.0624999999999999 0 0.3125
v -0.12499999999999986 0 0.4375
v -0.06249999999999986 1 0.4375
v 0.06250000000000014 1 0.4374999999999999
v 0.06250000000000008 0 0.3125
v -0.06249999999999986 0 0.4375
v -0.0624999999999999 1 0.3125
vt 0.03125 1
vt 0.03125 0
vt 0.0625 0
vt 0.5 0
vt 0.625 0
vt 0.625 1
vt 0.1875 0
vt 0.3125 0
vt 0.3125 1
vt 0.5 0
vt 0.5 1
vt 0.46875 1
vt 0 1
vt 0 0
vt 0.03125 0
vt 0.15625 0
vt 0.15625 1
vt 0.125 1
vt 0.1875 0
vt 0.1875 1
vt 0.15625 1
vt 0.3125 1
vt 0.3125 0
vt 0.34375 0
vt 0.34375 1
vt 0.34375 0
vt 0.375 0
vt 0.46875 0
vt 0.46875 1
vt 0.4375 1
vt 0.0625 1
vt 0.0625 0
vt 0.125 0
vt 0.375 0
vt 0.4375 0
vt 0.4375 1
vt 0.625 0
vt 0.65625 0
vt 0.65625 0.25
vt 0.625 0.25
vt 0.625 0
vt 0.65625 0.25
vt 0.75 0.25
vt 0.71875 0.25
vt 0.71875 0
vt 0.75 0
vt 0.75 0.25
vt 0.71875 0
vt 0.71875 0.1875
vt 0.65625 0.1875
vt 0.65625 0.0625
vt 0.65625 0.0625
vt 0.71875 0.0625
vt 0.71875 0.1875
vt 0.625 0.5
vt 0.625 0.25
vt 0.65625 0.25
vt 0.75 0.25
vt 0.75 0.5
vt 0.71875 0.5
vt 0.65625 0.4375
vt 0.65625 0.3125
vt 0.71875 0.3125
vt 0.03125 1
vt 0.0625 0
vt 0.0625 1
vt 0.5 0
vt 0.625 1
vt 0.5 1
vt 0.1875 0
vt 0.3125 1
vt 0.1875 1
vt 0.5 0
vt 0.46875 1
vt 0.46875 0
vt 0 1
vt 0.03125 0
vt 0.03125 1
vt 0.15625 0
vt 0.125 1
vt 0.125 0
vt 0.1875 0
vt 0.15625 1
vt 0.15625 0
vt 0.3125 1
vt 0.34375 0
vt 0.34375 1
vt 0.34375 1
vt 0.375 0
vt 0.375 1
vt 0.46875 0
vt 0.4375 1
vt 0.4375 0
vt 0.0625 1
vt 0.125 0
vt 0.125 1
vt 0.375 0
vt 0.4375 1
vt 0.375 1
vt 0.625 0.5
vt 0.65625 0.25
vt 0.65625 0.5
vt 0.75 0.25
vt 0.71875 0.5
vt 0.71875 0.25
vt 0.65625 0.4375
vt 0.71875 0.3125
vt 0.71875 0.4375
vn 0 0 -1
vn 0 0 1
vn 0 0 -1
vn -1 0 0
vn 1 0 -0
vn 0 0 1
vn 1 0 0
vn -1 0 0
vn 0 0 1
vn 0 0 -1
vn 1 0 -0
vn -1 0 0
vn 0 -1 0
vn 0 -1 0
vn 0 -1 0
vn 0 -1 0
vn 0 -1 0
vn 0 -1 0
vn 0 1 0
vn 0 1 0
vn 0 1 0
vn 0 0 -1
vn 0 0 1
vn 0 0 -1
vn -1 0 0
vn 1 0 -0
vn 0 0 1
vn 1 0 0
vn -1 0 0
vn 0 0 1
vn 0 0 -1
vn 1 0 -0
vn -1 0 0
vn 0 1 0
vn 0 1 0
vn 0 1 0
usemtl none
f 1/1/1 2/2/1 3/3/1
f 4/4/2 5/5/2 6/6/2
f 7/7/3 8/8/3 9/9/3
f 4/10/4 10/11/4 11/12/4
f 6/13/5 5/14/5 2/15/5
f 12/16/6 13/17/6 14/18/6
f 7/19/7 15/20/7 13/21/7
f 9/22/8 8/23/8 16/24/8
f 17/25/9 16/26/9 18/27/9
f 19/28/10 11/29/10 20/30/10
f 21/31/11 3/32/11 22/33/11
f 18/34/12 23/35/12 20/36/12
f 4/37/13 19/38/13 2/39/13
f 5/40/14 4/41/14 2/42/14
f 7/43/15 12/44/15 16/45/15
f 8/46/16 7/47/16 16/48/16
f 22/49/17 3/50/17 23/51/17
f 23/52/18 18/53/18 22/54/18
f 10/55/19 6/56/19 1/57/19
f 15/58/20 9/59/20 17/60/20
f 20/61/21 21/62/21 14/63/21
f 1/64/22 3/65/22 21/66/22
f 4/67/23 6/68/23 10/69/23
f 7/70/24 9/71/24 15/72/24
f 4/73/25 11/74/25 19/75/25
f 6/76/26 2/77/26 1/78/26
f 12/79/27 14/80/27 22/81/27
f 7/82/28 13/83/28 12/84/28
f 9/85/29 16/86/29 17/87/29
f 17/88/30 18/89/30 24/90/30
f 19/91/31 20/92/31 23/93/31
f 21/94/32 22/95/32 14/96/32
f 18/97/33 20/98/33 24/99/33
f 10/100/34 1/101/34 11/102/34
f 15/103/35 17/104/35 13/105/35
f 20/106/36 14/107/36 24/108/36
