# Blender 4.5.4 LTS
# www.blender.org
mtllib girder.mtl
o Bottom
v -0.125000 0.625000 0.125000
v -0.125000 0.625000 0.500000
v -0.125000 0.562500 0.125000
v -0.125000 0.562500 0.500000
v 0.125000 0.625000 0.125000
v 0.125000 0.625000 0.500000
v 0.125000 0.562500 0.125000
v 0.125000 0.562500 0.500000
v 0.062500 0.625000 0.125000
v 0.062500 0.625000 0.500000
v -0.062500 0.625000 0.125000
v -0.062500 0.625000 0.500000
v 0.062500 0.562500 0.500000
v -0.062500 0.562500 0.500000
v 0.056250 0.562500 0.125000
v -0.056250 0.562500 0.125000
v 0.062500 0.437500 0.500000
v -0.062500 0.437500 0.500000
v -0.056250 0.437500 0.125000
v 0.056250 0.437500 0.125000
v 0.062500 0.375000 0.500000
v -0.062500 0.375000 0.500000
v -0.062500 0.375000 0.125000
v 0.062500 0.375000 0.125000
v 0.125000 0.375000 0.500000
v 0.125000 0.375000 0.125000
v 0.125000 0.437500 0.125000
v 0.125000 0.437500 0.500000
v -0.125000 0.375000 0.125000
v -0.125000 0.375000 0.500000
v -0.125000 0.437500 0.500000
v -0.125000 0.437500 0.125000
vn -1.0000 -0.0000 -0.0000
vn 1.0000 -0.0000 -0.0000
vn -0.0000 1.0000 -0.0000
vn -0.0000 -1.0000 -0.0000
vn -0.0000 -0.0000 1.0000
vn -0.9999 -0.0000 -0.0167
vn 0.9999 -0.0000 -0.0167
vt 0.500000 0.250000
vt 0.875000 0.187500
vt 0.875000 0.250000
vt 0.875000 0.937500
vt 0.500000 0.875000
vt 0.875000 0.875000
vt 0.812500 0.625000
vt 0.875000 0.625000
vt 0.062500 0.375000
vt 0.000000 0.000000
vt 0.062500 0.000000
vt 0.062500 0.875000
vt 0.000000 0.937500
vt 0.000000 0.875000
vt 0.687500 0.250000
vt 0.625000 0.625000
vt 0.625000 0.250000
vt 0.812500 0.250000
vt 0.687500 0.625000
vt 0.187500 0.937500
vt 0.250000 0.875000
vt 0.250000 0.937500
vt 0.062500 0.937500
vt 0.187500 0.875000
vt 0.000000 0.375000
vt 0.375000 0.000000
vt 0.250000 0.375000
vt 0.250000 0.000000
vt 0.187500 0.750000
vt 0.062500 0.750000
vt 0.875000 0.062500
vt 0.500000 0.187500
vt 0.500000 0.062500
vt 0.875000 0.750000
vt 0.500000 0.750000
vt 0.187500 0.687500
vt 0.062500 0.687500
vt 0.875000 0.000000
vt 0.500000 0.000000
vt 0.875000 0.687500
vt 0.500000 0.687500
vt 0.437500 0.375000
vt 0.375000 0.375000
vt 0.250000 0.750000
vt 0.250000 0.687500
vt 0.187500 0.000000
vt 0.000000 0.687500
vt 0.000000 0.750000
vt 0.500000 0.937500
vt 0.437500 0.000000
vt 0.187500 0.375000
s 1
usemtl m_122006fc-d960-6c36-a890-08176c28896f
f 1/1/1 4/2/1 2/3/1
f 5/4/2 8/5/2 7/6/2
f 12/7/3 1/3/3 2/8/3
f 3/9/4 14/10/4 4/11/4
f 14/12/5 2/13/5 4/14/5
f 9/15/3 6/16/3 5/17/3
f 11/18/3 10/19/3 9/15/3
f 10/20/5 8/21/5 6/22/5
f 12/23/5 13/24/5 10/20/5
f 13/11/4 7/25/4 8/10/4
f 22/26/4 24/27/4 21/28/4
f 17/29/5 14/12/5 18/30/5
f 18/31/6 16/32/6 19/33/6
f 20/34/7 13/5/7 17/35/7
f 21/36/5 18/30/5 22/37/5
f 30/38/1 32/33/1 29/39/1
f 26/40/2 28/35/2 25/41/2
f 25/26/4 24/42/4 26/43/4
f 27/10/3 17/9/3 28/25/3
f 28/44/5 21/36/5 25/45/5
f 29/27/4 22/46/4 30/28/4
f 30/47/5 18/30/5 31/48/5
f 32/11/3 18/25/3 19/10/3
f 1/1/1 3/32/1 4/2/1
f 5/4/2 6/49/2 8/5/2
f 12/7/3 11/18/3 1/3/3
f 3/9/4 16/25/4 14/10/4
f 14/12/5 12/23/5 2/13/5
f 9/15/3 10/19/3 6/16/3
f 11/18/3 12/7/3 10/19/3
f 10/20/5 13/24/5 8/21/5
f 12/23/5 14/12/5 13/24/5
f 13/11/4 15/9/4 7/25/4
f 22/26/4 23/43/4 24/27/4
f 17/29/5 13/24/5 14/12/5
f 18/31/6 14/2/6 16/32/6
f 20/34/7 15/6/7 13/5/7
f 21/36/5 17/29/5 18/30/5
f 30/38/1 31/31/1 32/33/1
f 26/40/2 27/34/2 28/35/2
f 25/26/4 21/50/4 24/42/4
f 27/10/3 20/11/3 17/9/3
f 28/44/5 17/29/5 21/36/5
f 29/27/4 23/51/4 22/46/4
f 30/47/5 22/37/5 18/30/5
f 32/11/3 31/9/3 18/25/3
o Core
v 0.125000 0.625000 0.125000
v 0.125000 0.625000 -0.125000
v 0.125000 0.375000 0.125000
v 0.125000 0.375000 -0.125000
v -0.125000 0.625000 0.125000
v -0.125000 0.625000 -0.125000
v -0.125000 0.375000 0.125000
v -0.125000 0.375000 -0.125000
vn 1.0000 -0.0000 -0.0000
vn -1.0000 -0.0000 -0.0000
vn -0.0000 1.0000 -0.0000
vn -0.0000 -1.0000 -0.0000
vn -0.0000 -0.0000 1.0000
vn -0.0000 -0.0000 -1.0000
vt 0.500000 0.500000
vt 0.750000 0.250000
vt 0.750000 0.500000
vt 0.500000 0.250000
vt 0.250000 0.750000
vt 0.250000 0.500000
vt 0.250000 0.250000
vt 0.500000 0.750000
vt 0.750000 0.750000
s 1
usemtl m_122006fc-d960-6c36-a890-08176c28896f
f 33/52/8 36/53/8 34/54/8
f 37/54/9 40/55/9 39/53/9
f 33/52/10 38/56/10 37/57/10
f 35/54/11 40/55/11 36/53/11
f 33/52/12 39/58/12 35/55/12
f 34/59/13 40/54/13 38/60/13
f 33/52/8 35/55/8 36/53/8
f 37/54/9 38/52/9 40/55/9
f 33/52/10 34/59/10 38/56/10
f 35/54/11 39/52/11 40/55/11
f 33/52/12 37/57/12 39/58/12
f 34/59/13 36/52/13 40/54/13
o Left
v -0.125000 0.625000 -0.125000
v -0.500000 0.625000 -0.125000
v -0.125000 0.562500 -0.125000
v -0.500000 0.562500 -0.125000
v -0.125000 0.625000 0.125000
v -0.500000 0.625000 0.125000
v -0.125000 0.562500 0.125000
v -0.500000 0.562500 0.125000
v -0.125000 0.625000 0.062500
v -0.500000 0.625000 0.062500
v -0.125000 0.625000 -0.062500
v -0.500000 0.625000 -0.062500
v -0.500000 0.562500 0.062500
v -0.500000 0.562500 -0.062500
v -0.125000 0.562500 0.056250
v -0.125000 0.562500 -0.056250
v -0.500000 0.437500 0.062500
v -0.500000 0.437500 -0.062500
v -0.125000 0.437500 -0.056250
v -0.125000 0.437500 0.056250
v -0.500000 0.375000 0.062500
v -0.500000 0.375000 -0.062500
v -0.125000 0.375000 -0.062500
v -0.125000 0.375000 0.062500
v -0.500000 0.375000 0.125000
v -0.125000 0.375000 0.125000
v -0.125000 0.437500 0.125000
v -0.500000 0.437500 0.125000
v -0.125000 0.375000 -0.125000
v -0.500000 0.375000 -0.125000
v -0.500000 0.437500 -0.125000
v -0.125000 0.437500 -0.125000
vn -0.0000 -0.0000 -1.0000
vn -0.0000 -0.0000 1.0000
vn -0.0000 1.0000 -0.0000
vn -0.0000 -1.0000 -0.0000
vn -1.0000 -0.0000 -0.0000
vn 0.0167 -0.0000 -0.9999
vn 0.0167 -0.0000 0.9999
vt 0.500000 0.250000
vt 0.875000 0.187500
vt 0.875000 0.250000
vt 0.875000 0.937500
vt 0.500000 0.875000
vt 0.875000 0.875000
vt 0.812500 0.625000
vt 0.875000 0.625000
vt 0.062500 0.375000
vt 0.000000 0.000000
vt 0.062500 0.000000
vt 0.062500 0.875000
vt 0.000000 0.937500
vt 0.000000 0.875000
vt 0.687500 0.250000
vt 0.625000 0.625000
vt 0.625000 0.250000
vt 0.812500 0.250000
vt 0.687500 0.625000
vt 0.187500 0.937500
vt 0.250000 0.875000
vt 0.250000 0.937500
vt 0.062500 0.937500
vt 0.187500 0.875000
vt 0.000000 0.375000
vt 0.375000 0.000000
vt 0.250000 0.375000
vt 0.250000 0.000000
vt 0.187500 0.750000
vt 0.062500 0.750000
vt 0.875000 0.062500
vt 0.500000 0.187500
vt 0.500000 0.062500
vt 0.875000 0.750000
vt 0.500000 0.750000
vt 0.187500 0.687500
vt 0.062500 0.687500
vt 0.875000 0.000000
vt 0.500000 0.000000
vt 0.875000 0.687500
vt 0.500000 0.687500
vt 0.437500 0.375000
vt 0.375000 0.375000
vt 0.250000 0.750000
vt 0.250000 0.687500
vt 0.187500 0.000000
vt 0.000000 0.687500
vt 0.000000 0.750000
vt 0.500000 0.937500
vt 0.437500 0.000000
vt 0.187500 0.375000
s 1
usemtl m_122006fc-d960-6c36-a890-08176c28896f
f 41/61/14 44/62/14 42/63/14
f 45/64/15 48/65/15 47/66/15
f 52/67/16 41/63/16 42/68/16
f 43/69/17 54/70/17 44/71/17
f 54/72/18 42/73/18 44/74/18
f 49/75/16 46/76/16 45/77/16
f 51/78/16 50/79/16 49/75/16
f 50/80/18 48/81/18 46/82/18
f 52/83/18 53/84/18 50/80/18
f 53/71/17 47/85/17 48/70/17
f 62/86/17 64/87/17 61/88/17
f 57/89/18 54/72/18 58/90/18
f 58/91/19 56/92/19 59/93/19
f 60/94/20 53/65/20 57/95/20
f 61/96/18 58/90/18 62/97/18
f 70/98/14 72/93/14 69/99/14
f 66/100/15 68/95/15 65/101/15
f 65/86/17 64/102/17 66/103/17
f 67/70/16 57/69/16 68/85/16
f 68/104/18 61/96/18 65/105/18
f 69/87/17 62/106/17 70/88/17
f 70/107/18 58/90/18 71/108/18
f 72/71/16 58/85/16 59/70/16
f 41/61/14 43/92/14 44/62/14
f 45/64/15 46/109/15 48/65/15
f 52/67/16 51/78/16 41/63/16
f 43/69/17 56/85/17 54/70/17
f 54/72/18 52/83/18 42/73/18
f 49/75/16 50/79/16 46/76/16
f 51/78/16 52/67/16 50/79/16
f 50/80/18 53/84/18 48/81/18
f 52/83/18 54/72/18 53/84/18
f 53/71/17 55/69/17 47/85/17
f 62/86/17 63/103/17 64/87/17
f 57/89/18 53/84/18 54/72/18
f 58/91/19 54/62/19 56/92/19
f 60/94/20 55/66/20 53/65/20
f 61/96/18 57/89/18 58/90/18
f 70/98/14 71/91/14 72/93/14
f 66/100/15 67/94/15 68/95/15
f 65/86/17 61/110/17 64/102/17
f 67/70/16 60/71/16 57/69/16
f 68/104/18 57/89/18 61/96/18
f 69/87/17 63/111/17 62/106/17
f 70/107/18 62/97/18 58/90/18
f 72/71/16 71/69/16 58/85/16
o Right
v 0.125000 0.625000 0.125000
v 0.500000 0.625000 0.125000
v 0.125000 0.562500 0.125000
v 0.500000 0.562500 0.125000
v 0.125000 0.625000 -0.125000
v 0.500000 0.625000 -0.125000
v 0.125000 0.562500 -0.125000
v 0.500000 0.562500 -0.125000
v 0.125000 0.625000 -0.062500
v 0.500000 0.625000 -0.062500
v 0.125000 0.625000 0.062500
v 0.500000 0.625000 0.062500
v 0.500000 0.562500 -0.062500
v 0.500000 0.562500 0.062500
v 0.125000 0.562500 -0.056250
v 0.125000 0.562500 0.056250
v 0.500000 0.437500 -0.062500
v 0.500000 0.437500 0.062500
v 0.125000 0.437500 0.056250
v 0.125000 0.437500 -0.056250
v 0.500000 0.375000 -0.062500
v 0.500000 0.375000 0.062500
v 0.125000 0.375000 0.062500
v 0.125000 0.375000 -0.062500
v 0.500000 0.375000 -0.125000
v 0.125000 0.375000 -0.125000
v 0.125000 0.437500 -0.125000
v 0.500000 0.437500 -0.125000
v 0.125000 0.375000 0.125000
v 0.500000 0.375000 0.125000
v 0.500000 0.437500 0.125000
v 0.125000 0.437500 0.125000
vn -0.0000 -0.0000 1.0000
vn -0.0000 -0.0000 -1.0000
vn -0.0000 1.0000 -0.0000
vn -0.0000 -1.0000 -0.0000
vn 1.0000 -0.0000 -0.0000
vn -0.0167 -0.0000 0.9999
vn -0.0167 -0.0000 -0.9999
vt 0.500000 0.250000
vt 0.875000 0.187500
vt 0.875000 0.250000
vt 0.875000 0.937500
vt 0.500000 0.875000
vt 0.875000 0.875000
vt 0.812500 0.625000
vt 0.875000 0.625000
vt 0.062500 0.375000
vt 0.000000 0.000000
vt 0.062500 0.000000
vt 0.062500 0.875000
vt 0.000000 0.937500
vt 0.000000 0.875000
vt 0.687500 0.250000
vt 0.625000 0.625000
vt 0.625000 0.250000
vt 0.812500 0.250000
vt 0.687500 0.625000
vt 0.187500 0.937500
vt 0.250000 0.875000
vt 0.250000 0.937500
vt 0.062500 0.937500
vt 0.187500 0.875000
vt 0.000000 0.375000
vt 0.375000 0.000000
vt 0.250000 0.375000
vt 0.250000 0.000000
vt 0.187500 0.750000
vt 0.062500 0.750000
vt 0.875000 0.062500
vt 0.500000 0.187500
vt 0.500000 0.062500
vt 0.875000 0.750000
vt 0.500000 0.750000
vt 0.187500 0.687500
vt 0.062500 0.687500
vt 0.875000 0.000000
vt 0.500000 0.000000
vt 0.875000 0.687500
vt 0.500000 0.687500
vt 0.437500 0.375000
vt 0.375000 0.375000
vt 0.250000 0.750000
vt 0.250000 0.687500
vt 0.187500 0.000000
vt 0.000000 0.687500
vt 0.000000 0.750000
vt 0.500000 0.937500
vt 0.437500 0.000000
vt 0.187500 0.375000
s 1
usemtl m_122006fc-d960-6c36-a890-08176c28896f
f 73/112/21 76/113/21 74/114/21
f 77/115/22 80/116/22 79/117/22
f 84/118/23 73/114/23 74/119/23
f 75/120/24 86/121/24 76/122/24
f 86/123/25 74/124/25 76/125/25
f 81/126/23 78/127/23 77/128/23
f 83/129/23 82/130/23 81/126/23
f 82/131/25 80/132/25 78/133/25
f 84/134/25 85/135/25 82/131/25
f 85/122/24 79/136/24 80/121/24
f 94/137/24 96/138/24 93/139/24
f 89/140/25 86/123/25 90/141/25
f 90/142/26 88/143/26 91/144/26
f 92/145/27 85/116/27 89/146/27
f 93/147/25 90/141/25 94/148/25
f 102/149/21 104/144/21 101/150/21
f 98/151/22 100/146/22 97/152/22
f 97/137/24 96/153/24 98/154/24
f 99/121/23 89/120/23 100/136/23
f 100/155/25 93/147/25 97/156/25
f 101/138/24 94/157/24 102/139/24
f 102/158/25 90/141/25 103/159/25
f 104/122/23 90/136/23 91/121/23
f 73/112/21 75/143/21 76/113/21
f 77/115/22 78/160/22 80/116/22
f 84/118/23 83/129/23 73/114/23
f 75/120/24 88/136/24 86/121/24
f 86/123/25 84/134/25 74/124/25
f 81/126/23 82/130/23 78/127/23
f 83/129/23 84/118/23 82/130/23
f 82/131/25 85/135/25 80/132/25
f 84/134/25 86/123/25 85/135/25
f 85/122/24 87/120/24 79/136/24
f 94/137/24 95/154/24 96/138/24
f 89/140/25 85/135/25 86/123/25
f 90/142/26 86/113/26 88/143/26
f 92/145/27 87/117/27 85/116/27
f 93/147/25 89/140/25 90/141/25
f 102/149/21 103/142/21 104/144/21
f 98/151/22 99/145/22 100/146/22
f 97/137/24 93/161/24 96/153/24
f 99/121/23 92/122/23 89/120/23
f 100/155/25 89/140/25 93/147/25
f 101/138/24 95/162/24 94/157/24
f 102/158/25 94/148/25 90/141/25
f 104/122/23 103/120/23 90/136/23
o Top
v 0.125000 0.625000 -0.125000
v 0.125000 0.625000 -0.500000
v 0.125000 0.562500 -0.125000
v 0.125000 0.562500 -0.500000
v -0.125000 0.625000 -0.125000
v -0.125000 0.625000 -0.500000
v -0.125000 0.562500 -0.125000
v -0.125000 0.562500 -0.500000
v -0.062500 0.625000 -0.125000
v -0.062500 0.625000 -0.500000
v 0.062500 0.625000 -0.125000
v 0.062500 0.625000 -0.500000
v -0.062500 0.562500 -0.500000
v 0.062500 0.562500 -0.500000
v -0.056250 0.562500 -0.125000
v 0.056250 0.562500 -0.125000
v -0.062500 0.437500 -0.500000
v 0.062500 0.437500 -0.500000
v 0.056250 0.437500 -0.125000
v -0.056250 0.437500 -0.125000
v -0.062500 0.375000 -0.500000
v 0.062500 0.375000 -0.500000
v 0.062500 0.375000 -0.125000
v -0.062500 0.375000 -0.125000
v -0.125000 0.375000 -0.500000
v -0.125000 0.375000 -0.125000
v -0.125000 0.437500 -0.125000
v -0.125000 0.437500 -0.500000
v 0.125000 0.375000 -0.125000
v 0.125000 0.375000 -0.500000
v 0.125000 0.437500 -0.500000
v 0.125000 0.437500 -0.125000
vn 1.0000 -0.0000 -0.0000
vn -1.0000 -0.0000 -0.0000
vn -0.0000 1.0000 -0.0000
vn -0.0000 -1.0000 -0.0000
vn -0.0000 -0.0000 -1.0000
vn 0.9999 -0.0000 0.0167
vn -0.9999 -0.0000 0.0167
vt 0.500000 0.250000
vt 0.875000 0.187500
vt 0.875000 0.250000
vt 0.875000 0.937500
vt 0.500000 0.875000
vt 0.875000 0.875000
vt 0.812500 0.625000
vt 0.875000 0.625000
vt 0.062500 0.375000
vt 0.000000 0.000000
vt 0.062500 0.000000
vt 0.062500 0.875000
vt 0.000000 0.937500
vt 0.000000 0.875000
vt 0.687500 0.250000
vt 0.625000 0.625000
vt 0.625000 0.250000
vt 0.812500 0.250000
vt 0.687500 0.625000
vt 0.187500 0.937500
vt 0.250000 0.875000
vt 0.250000 0.937500
vt 0.062500 0.937500
vt 0.187500 0.875000
vt 0.000000 0.375000
vt 0.375000 0.000000
vt 0.250000 0.375000
vt 0.250000 0.000000
vt 0.187500 0.750000
vt 0.062500 0.750000
vt 0.875000 0.062500
vt 0.500000 0.187500
vt 0.500000 0.062500
vt 0.875000 0.750000
vt 0.500000 0.750000
vt 0.187500 0.687500
vt 0.062500 0.687500
vt 0.875000 0.000000
vt 0.500000 0.000000
vt 0.875000 0.687500
vt 0.500000 0.687500
vt 0.437500 0.375000
vt 0.375000 0.375000
vt 0.250000 0.750000
vt 0.250000 0.687500
vt 0.187500 0.000000
vt 0.000000 0.687500
vt 0.000000 0.750000
vt 0.500000 0.937500
vt 0.437500 0.000000
vt 0.187500 0.375000
s 1
usemtl m_122006fc-d960-6c36-a890-08176c28896f
f 105/163/28 108/164/28 106/165/28
f 109/166/29 112/167/29 111/168/29
f 116/169/30 105/165/30 106/170/30
f 107/171/31 118/172/31 108/173/31
f 118/174/32 106/175/32 108/176/32
f 113/177/30 110/178/30 109/179/30
f 115/180/30 114/181/30 113/177/30
f 114/182/32 112/183/32 110/184/32
f 116/185/32 117/186/32 114/182/32
f 117/173/31 111/187/31 112/172/31
f 126/188/31 128/189/31 125/190/31
f 121/191/32 118/174/32 122/192/32
f 122/193/33 120/194/33 123/195/33
f 124/196/34 117/167/34 121/197/34
f 125/198/32 122/192/32 126/199/32
f 134/200/28 136/195/28 133/201/28
f 130/202/29 132/197/29 129/203/29
f 129/188/31 128/204/31 130/205/31
f 131/172/30 121/171/30 132/187/30
f 132/206/32 125/198/32 129/207/32
f 133/189/31 126/208/31 134/190/31
f 134/209/32 122/192/32 135/210/32
f 136/173/30 122/187/30 123/172/30
f 105/163/28 107/194/28 108/164/28
f 109/166/29 110/211/29 112/167/29
f 116/169/30 115/180/30 105/165/30
f 107/171/31 120/187/31 118/172/31
f 118/174/32 116/185/32 106/175/32
f 113/177/30 114/181/30 110/178/30
f 115/180/30 116/169/30 114/181/30
f 114/182/32 117/186/32 112/183/32
f 116/185/32 118/174/32 117/186/32
f 117/173/31 119/171/31 111/187/31
f 126/188/31 127/205/31 128/189/31
f 121/191/32 117/186/32 118/174/32
f 122/193/33 118/164/33 120/194/33
f 124/196/34 119/168/34 117/167/34
f 125/198/32 121/191/32 122/192/32
f 134/200/28 135/193/28 136/195/28
f 130/202/29 131/196/29 132/197/29
f 129/188/31 125/212/31 128/204/31
f 131/172/30 124/173/30 121/171/30
f 132/206/32 121/191/32 125/198/32
f 133/189/31 127/213/31 126/208/31
f 134/209/32 126/199/32 122/192/32
f 136/173/30 135/171/30 122/187/30
