# Blender 4.5.3 LTS
# www.blender.org
mtllib model2.mtl
o Top
v 0.125000 1.000000 -0.500000
v 0.125000 1.000000 0.250000
v 0.125000 0.937500 0.250000
v 0.125000 0.937500 -0.500000
v -0.125000 0.937500 0.250000
v -0.125000 1.000000 0.250000
v -0.125000 1.000000 -0.500000
v -0.125000 0.937500 -0.500000
v 0.062500 1.000000 -0.500000
v 0.062500 1.000000 0.250000
v 0.056250 0.937500 0.250000
v 0.062500 0.937500 -0.500000
v -0.062500 1.000000 0.250000
v -0.062500 1.000000 -0.500000
v -0.062500 0.937500 -0.500000
v -0.056250 0.937500 0.250000
v -0.062500 0.750000 -0.500000
v 0.062500 0.750000 -0.500000
v 0.062500 0.750000 0.250000
v -0.062500 0.750000 0.250000
v 0.062500 0.812500 -0.500000
v -0.062500 0.812500 -0.500000
v 0.056250 0.812500 0.250000
v -0.056250 0.812500 0.250000
v 0.125000 0.750000 0.250000
v 0.125000 0.750000 -0.500000
v 0.125000 0.812500 -0.500000
v 0.125000 0.812500 0.250000
v -0.125000 0.750000 -0.500000
v -0.125000 0.750000 0.250000
v -0.125000 0.812500 0.250000
v -0.125000 0.812500 -0.500000
v 0.125000 1.000000 0.250000
v 0.125000 1.000000 0.500000
v 0.125000 0.750000 0.500000
v 0.125000 0.750000 0.250000
v -0.125000 0.750000 0.500000
v -0.125000 1.000000 0.500000
v -0.125000 1.000000 0.250000
v -0.125000 0.750000 0.250000
v 0.125000 0.000000 0.250000
v 0.125000 0.750000 0.250000
v 0.125000 0.750000 0.312500
v 0.125000 0.000000 0.312500
v -0.125000 0.750000 0.312500
v -0.125000 0.750000 0.250000
v -0.125000 0.000000 0.250000
v -0.125000 0.000000 0.312500
v 0.062500 0.000000 0.250000
v 0.062500 0.750000 0.250000
v 0.056250 0.750000 0.312500
v 0.062500 0.000000 0.312500
v -0.062500 0.750000 0.250000
v -0.062500 0.000000 0.250000
v -0.062500 0.000000 0.312500
v -0.056250 0.750000 0.312500
v -0.062500 0.000000 0.500000
v 0.062500 0.000000 0.500000
v 0.062500 0.750000 0.500000
v -0.062500 0.750000 0.500000
v 0.062500 0.000000 0.437500
v -0.062500 0.000000 0.437500
v 0.056250 0.750000 0.437500
v -0.056250 0.750000 0.437500
v 0.125000 0.750000 0.500000
v 0.125000 0.000000 0.500000
v 0.125000 0.000000 0.437500
v 0.125000 0.750000 0.437500
v -0.125000 0.000000 0.500000
v -0.125000 0.750000 0.500000
v -0.125000 0.750000 0.437500
v -0.125000 0.000000 0.437500
v -0.062500 0.750000 -0.187500
v -0.062500 0.750000 -0.312500
v -0.062500 0.187500 0.250000
v -0.062500 0.312500 0.250000
v 0.062500 0.312500 0.250000
v 0.062500 0.750000 -0.187500
v 0.062500 0.750000 -0.312500
v 0.062500 0.187500 0.250000
vn 1.0000 -0.0000 -0.0000
vn -1.0000 -0.0000 -0.0000
vn -0.0000 1.0000 -0.0000
vn -0.0000 -1.0000 -0.0000
vn -0.0000 -0.0000 -1.0000
vn 1.0000 -0.0000 0.0083
vn -1.0000 -0.0000 0.0083
vn -0.0000 -0.0000 1.0000
vn 1.0000 0.0083 -0.0000
vn -1.0000 0.0083 -0.0000
vn -0.0000 0.7071 0.7071
vn -0.0000 -0.7071 -0.7071
vt 0.250000 0.250000
vt 1.000000 0.187500
vt 1.000000 0.250000
vt 1.000000 0.937500
vt 0.250000 0.875000
vt 1.000000 0.875000
vt 0.812500 0.812500
vt 0.875000 0.062500
vt 0.875000 0.812500
vt 0.068750 0.750000
vt 0.006250 0.000000
vt 0.068750 0.000000
vt 0.062500 0.875000
vt 0.000000 0.937500
vt 0.000000 0.875000
vt 0.687500 0.062500
vt 0.625000 0.812500
vt 0.625000 0.062500
vt 0.812500 0.062500
vt 0.687500 0.812500
vt 0.187500 0.937500
vt 0.250000 0.937500
vt 0.062500 0.937500
vt 0.187500 0.875000
vt 0.062500 0.000000
vt 0.000000 0.750000
vt 0.000000 0.000000
vt 0.375000 0.000000
vt 0.250000 0.750000
vt 0.250000 0.000000
vt 0.187500 0.750000
vt 0.062500 0.750000
vt 1.000031 0.062500
vt 0.250000 0.187500
vt 0.250000 0.062500
vt 1.000031 0.750000
vt 0.187500 0.687500
vt 0.062500 0.687500
vt 1.000000 0.000000
vt 1.000000 0.687500
vt 0.250000 0.687500
vt 0.437500 0.750000
vt 0.375000 0.750000
vt 0.187500 0.000000
vt 0.000000 0.687500
vt 0.006250 0.750000
vt 0.500000 0.500000
vt 0.750000 0.250000
vt 0.750000 0.500000
vt 0.500000 0.250000
vt 0.250000 0.500000
vt 0.500000 0.750000
vt 0.750000 0.750000
vt 0.687500 1.000000
vt 0.812500 0.111111
vt 0.812500 0.888889
vt 0.437500 0.888889
vt 0.312500 0.111111
vt 0.437500 0.111111
vt 0.562500 0.000000
vt 0.562500 1.000000
vt 1.000031 0.187500
vt 1.000031 0.875000
vt 1.000000 0.062500
vt 1.000000 0.750000
vt 0.437500 0.000000
vt 0.687500 0.000000
vt 0.312500 0.888889
s 1
usemtl none
f 2/1/1 4/2/1 1/3/1
f 6/4/2 8/5/2 5/6/2
f 9/7/3 2/8/3 1/9/3
f 3/10/4 12/11/4 4/12/4
f 12/13/5 1/14/5 4/15/5
f 13/16/3 7/17/3 6/18/3
f 10/19/3 14/20/3 13/16/3
f 14/21/5 8/5/5 7/22/5
f 9/23/5 15/24/5 14/21/5
f 15/25/4 5/26/4 8/27/4
f 18/28/4 20/29/4 17/30/4
f 22/31/5 12/13/5 21/32/5
f 21/33/6 11/34/6 23/35/6
f 24/36/7 15/5/7 22/29/7
f 17/37/5 21/32/5 18/38/5
f 26/39/1 28/35/1 25/30/1
f 30/40/2 32/29/2 29/41/2
f 29/28/4 20/42/4 30/43/4
f 31/27/3 22/32/3 32/26/3
f 32/29/5 17/37/5 29/41/5
f 25/29/4 18/44/4 26/30/4
f 26/45/5 21/32/5 27/26/5
f 28/12/3 21/46/3 23/27/3
f 34/47/1 36/48/1 33/49/1
f 38/49/2 40/50/2 37/48/2
f 34/47/3 39/29/3 38/51/3
f 35/49/4 40/50/4 36/48/4
f 34/47/8 37/1/8 35/50/8
f 33/52/5 40/49/5 39/53/5
f 42/1/1 44/2/1 41/3/1
f 46/4/2 48/5/2 45/6/2
f 49/7/5 42/8/5 41/9/5
f 43/10/8 52/11/8 44/12/8
f 52/13/4 41/14/4 44/15/4
f 53/16/5 47/17/5 46/18/5
f 50/19/5 54/20/5 53/16/5
f 54/21/4 48/5/4 47/22/4
f 49/23/4 55/24/4 54/21/4
f 55/25/8 45/26/8 48/27/8
f 58/28/8 60/29/8 57/30/8
f 62/31/4 52/13/4 61/32/4
f 61/33/9 51/34/9 63/35/9
f 64/36/10 55/5/10 62/29/10
f 57/37/4 61/32/4 58/38/4
f 66/39/1 68/35/1 65/30/1
f 70/40/2 72/29/2 69/41/2
f 69/28/8 60/42/8 70/43/8
f 71/27/5 62/32/5 72/26/5
f 72/29/4 57/37/4 69/41/4
f 65/29/8 58/44/8 66/30/8
f 66/45/4 61/32/4 67/26/4
f 68/12/5 61/46/5 63/27/5
f 74/54/2 76/55/2 73/56/2
f 78/57/11 76/58/11 77/59/11
f 79/54/12 75/60/12 74/61/12
f 78/57/1 80/60/1 79/61/1
f 2/1/1 3/34/1 4/2/1
f 6/4/2 7/22/2 8/5/2
f 9/7/3 10/19/3 2/8/3
f 3/10/4 11/26/4 12/11/4
f 12/13/5 9/23/5 1/14/5
f 13/16/3 14/20/3 7/17/3
f 10/19/3 9/7/3 14/20/3
f 14/21/5 15/24/5 8/5/5
f 9/23/5 12/13/5 15/24/5
f 15/25/4 16/10/4 5/26/4
f 18/28/4 19/43/4 20/29/4
f 22/31/5 15/24/5 12/13/5
f 21/33/6 12/62/6 11/34/6
f 24/36/7 16/63/7 15/5/7
f 17/37/5 22/31/5 21/32/5
f 26/39/1 27/64/1 28/35/1
f 30/40/2 31/65/2 32/29/2
f 29/28/4 17/66/4 20/42/4
f 31/27/3 24/12/3 22/32/3
f 32/29/5 22/31/5 17/37/5
f 25/29/4 19/31/4 18/44/4
f 26/45/5 18/38/5 21/32/5
f 28/12/3 27/10/3 21/46/3
f 34/47/1 35/50/1 36/48/1
f 38/49/2 39/47/2 40/50/2
f 34/47/3 33/52/3 39/29/3
f 35/49/4 37/47/4 40/50/4
f 34/47/8 38/51/8 37/1/8
f 33/52/5 36/47/5 40/49/5
f 42/1/1 43/34/1 44/2/1
f 46/4/2 47/22/2 48/5/2
f 49/7/5 50/19/5 42/8/5
f 43/10/8 51/26/8 52/11/8
f 52/13/4 49/23/4 41/14/4
f 53/16/5 54/20/5 47/17/5
f 50/19/5 49/7/5 54/20/5
f 54/21/4 55/24/4 48/5/4
f 49/23/4 52/13/4 55/24/4
f 55/25/8 56/10/8 45/26/8
f 58/28/8 59/43/8 60/29/8
f 62/31/4 55/24/4 52/13/4
f 61/33/9 52/62/9 51/34/9
f 64/36/10 56/63/10 55/5/10
f 57/37/4 62/31/4 61/32/4
f 66/39/1 67/64/1 68/35/1
f 70/40/2 71/65/2 72/29/2
f 69/28/8 57/66/8 60/42/8
f 71/27/5 64/12/5 62/32/5
f 72/29/4 62/31/4 57/37/4
f 65/29/8 59/31/8 58/44/8
f 66/45/4 58/38/4 61/32/4
f 68/12/5 67/10/5 61/46/5
f 74/54/2 75/67/2 76/55/2
f 78/57/11 73/68/11 76/58/11
f 79/54/12 80/67/12 75/60/12
f 78/57/1 77/59/1 80/60/1
