# Made in Blockbench 5.0.2
mtllib model.mtl

o Top
v 0.125 1 -0.49999999999999994
v 0.125 1 0.25
v 0.125 0.9375 0.25
v 0.125 0.9375 -0.49999999999999994
v -0.125 0.9375 0.25
v -0.125 1 0.25
v -0.125 1 -0.49999999999999994
v -0.125 0.9375 -0.49999999999999994
v 0.0625 1 -0.49999999999999994
v 0.0625 1 0.25
v 0.05625 0.9375 0.25
v 0.0625 0.9375 -0.49999999999999994
v -0.0625 1 0.25
v -0.0625 1 -0.49999999999999994
v -0.0625 0.9375 -0.49999999999999994
v -0.05625 0.9375 0.25
v -0.0625 0.75 -0.49999999999999994
v 0.0625 0.75 -0.49999999999999994
v 0.0625 0.75 0.25
v -0.0625 0.75 0.25
v 0.0625 0.8125 -0.49999999999999994
v -0.0625 0.8125 -0.49999999999999994
v 0.05625 0.8125 0.25
v -0.05625 0.8125 0.25
v 0.125 0.75 0.25
v 0.125 0.75 -0.49999999999999994
v 0.125 0.8125 -0.49999999999999994
v 0.125 0.8125 0.25
v -0.125 0.75 -0.49999999999999994
v -0.125 0.75 0.25
v -0.125 0.8125 0.25
v -0.125 0.8125 -0.49999999999999994
v 0.125 1 0.25
v 0.125 1 0.5
v 0.125 0.75 0.5
v 0.125 0.75 0.25
v -0.125 0.75 0.5
v -0.125 1 0.5
v -0.125 1 0.25
v -0.125 0.75 0.25
v 0.125 0 0.25
v 0.125 0.75 0.25
v 0.125 0.75 0.3125
v 0.125 0 0.3125
v -0.125 0.75 0.3125
v -0.125 0.75 0.25
v -0.125 0 0.25
v -0.125 0 0.3125
v 0.0625 0 0.25
v 0.0625 0.75 0.25
v 0.05625 0.75 0.3125
v 0.0625 0 0.3125
v -0.0625 0.75 0.25
v -0.0625 0 0.25
v -0.0625 0 0.3125
v -0.05625 0.75 0.3125
v -0.0625 0 0.5
v 0.0625 0 0.5
v 0.0625 0.75 0.5
v -0.0625 0.75 0.5
v 0.0625 0 0.4375
v -0.0625 0 0.4375
v 0.05625 0.75 0.4375
v -0.05625 0.75 0.4375
v 0.125 0.75 0.5
v 0.125 0 0.5
v 0.125 0 0.4375
v 0.125 0.75 0.4375
v -0.125 0 0.5
v -0.125 0.75 0.5
v -0.125 0.75 0.4375
v -0.125 0 0.4375
v -0.0625 0.75 -0.1875
v -0.0625 0.75 -0.3125
v -0.0625 0.1875 0.25
v -0.0625 0.3125 0.25
v 0.0625 0.3125 0.25
v 0.0625 0.75 -0.1875
v 0.0625 0.75 -0.3125
v 0.0625 0.1875 0.25
vt 1 0.25
vt 0.25 0.25
vt 0.25 0.1875
vt 1 0.1875
vt 1 0.875
vt 1 0.9375
vt 0.25 0.9375
vt 0.25 0.875
vt 0.875 0.8125
vt 0.8125 0.8125
vt 0.8125 0.0625
vt 0.875 0.0625
vt 0.06875 0.75
vt 0 0.75
vt 0.00625 0
vt 0.06875 0
vt 0 0.875
vt 0.0625 0.875
vt 0.0625 0.9375
vt 0 0.9375
vt 0.625 0.0625
vt 0.6875 0.0625
vt 0.6875 0.8125
vt 0.625 0.8125
vt 0.6875 0.0625
vt 0.8125 0.0625
vt 0.8125 0.8125
vt 0.6875 0.8125
vt 0.25 0.9375
vt 0.1875 0.9375
vt 0.1875 0.875
vt 0.25 0.875
vt 0.1875 0.9375
vt 0.0625 0.9375
vt 0.0625 0.875
vt 0.1875 0.875
vt 0 0
vt 0.0625 0
vt 0.06875 0.75
vt 0 0.75
vt 0.25 0
vt 0.375 0
vt 0.375 0.75
vt 0.25 0.75
vt 0.0625 0.75
vt 0.1875 0.75
vt 0.1875 0.875
vt 0.0625 0.875
vt 0.25 0.0625
vt 1.000031 0.0625
vt 1.000031 0.1875
vt 0.25 0.1875
vt 0.25 0.75
vt 1.000031 0.75
vt 1.000031 0.875
vt 0.25 0.875
vt 0.0625 0.6875
vt 0.1875 0.6875
vt 0.1875 0.75
vt 0.0625 0.75
vt 0.25 0
vt 1 0
vt 1 0.0625
vt 0.25 0.0625
vt 0.25 0.6875
vt 1 0.6875
vt 1 0.75
vt 0.25 0.75
vt 0.375 0.75
vt 0.375 0
vt 0.4375 0
vt 0.4375 0.75
vt 0 0.75
vt 0 0
vt 0.06875 0
vt 0.0625 0.75
vt 0.25 0.6875
vt 0.25 0.75
vt 0.1875 0.75
vt 0.1875 0.6875
vt 0.25 0
vt 0.25 0.75
vt 0.1875 0.75
vt 0.1875 0
vt 0 0.75
vt 0 0.6875
vt 0.0625 0.6875
vt 0.0625 0.75
vt 0.06875 0
vt 0.06875 0.75
vt 0.00625 0.75
vt 0 0
vt 0.75 0.5
vt 0.5 0.5
vt 0.5 0.25
vt 0.75 0.25
vt 0.75 0.25
vt 0.75 0.5
vt 0.5 0.5
vt 0.5 0.25
vt 0.25 0.5
vt 0.5 0.5
vt 0.5 0.75
vt 0.25 0.75
vt 0.75 0.25
vt 0.75 0.5
vt 0.5 0.5
vt 0.5 0.25
vt 0.5 0.25
vt 0.5 0.5
vt 0.25 0.5
vt 0.25 0.25
vt 0.75 0.75
vt 0.5 0.75
vt 0.5 0.5
vt 0.75 0.5
vt 1 0.25
vt 0.25 0.25
vt 0.25 0.1875
vt 1 0.1875
vt 1 0.875
vt 1 0.9375
vt 0.25 0.9375
vt 0.25 0.875
vt 0.875 0.8125
vt 0.8125 0.8125
vt 0.8125 0.0625
vt 0.875 0.0625
vt 0.06875 0.75
vt 0 0.75
vt 0.00625 0
vt 0.06875 0
vt 0 0.875
vt 0.0625 0.875
vt 0.0625 0.9375
vt 0 0.9375
vt 0.625 0.0625
vt 0.6875 0.0625
vt 0.6875 0.8125
vt 0.625 0.8125
vt 0.6875 0.0625
vt 0.8125 0.0625
vt 0.8125 0.8125
vt 0.6875 0.8125
vt 0.25 0.9375
vt 0.1875 0.9375
vt 0.1875 0.875
vt 0.25 0.875
vt 0.1875 0.9375
vt 0.0625 0.9375
vt 0.0625 0.875
vt 0.1875 0.875
vt 0 0
vt 0.0625 0
vt 0.06875 0.75
vt 0 0.75
vt 0.25 0
vt 0.375 0
vt 0.375 0.75
vt 0.25 0.75
vt 0.0625 0.75
vt 0.1875 0.75
vt 0.1875 0.875
vt 0.0625 0.875
vt 0.25 0.0625
vt 1.000031 0.0625
vt 1.000031 0.1875
vt 0.25 0.1875
vt 0.25 0.75
vt 1.000031 0.75
vt 1.000031 0.875
vt 0.25 0.875
vt 0.0625 0.6875
vt 0.1875 0.6875
vt 0.1875 0.75
vt 0.0625 0.75
vt 0.25 0
vt 1 0
vt 1 0.0625
vt 0.25 0.0625
vt 0.25 0.6875
vt 1 0.6875
vt 1 0.75
vt 0.25 0.75
vt 0.375 0.75
vt 0.375 0
vt 0.4375 0
vt 0.4375 0.75
vt 0 0.75
vt 0 0
vt 0.06875 0
vt 0.0625 0.75
vt 0.25 0.6875
vt 0.25 0.75
vt 0.1875 0.75
vt 0.1875 0.6875
vt 0.25 0
vt 0.25 0.75
vt 0.1875 0.75
vt 0.1875 0
vt 0 0.75
vt 0 0.6875
vt 0.0625 0.6875
vt 0.0625 0.75
vt 0.06875 0
vt 0.06875 0.75
vt 0.00625 0.75
vt 0 0
vt 0.8125 0.888889
vt 0.6875 1
vt 0.6875 0
vt 0.8125 0.11111099999999996
vt 0.4375 0.11111099999999996
vt 0.4375 0.888889
vt 0.3125 0.888889
vt 0.3125 0.11111099999999996
vt 0.5625 1
vt 0.6875 1
vt 0.6875 0
vt 0.5625 0
vt 0.5625 1
vt 0.4375 0.888889
vt 0.4375 0.11111099999999996
vt 0.5625 0
vn 1 0 0
vn -1 0 0
vn 0 1 0
vn 0 -1 0
vn 0 0 -1
vn 0 1 0
vn 0 1 0
vn 0 0 -1
vn 0 0 -1
vn 0 -1 0
vn 0 -1 0
vn 0 0 -1
vn 0.9999652795861222 0 0.008333043996551017
vn -0.9999652795861222 0 0.008333043996551017
vn 0 0 -1
vn 1 0 0
vn -1 0 0
vn 0 -1 0
vn 0 1 0
vn 0 0 -1
vn 0 -1 0
vn 0 0 -1
vn 0 1 0
vn 1 0 0
vn -1 0 0
vn 0 1 0
vn 0 -1 0
vn 0 0 1
vn 0 0 -1
vn 1 0 0
vn -1 0 0
vn 0 0 -1
vn 0 0 1
vn 0 -1 0
vn 0 0 -1
vn 0 0 -1
vn 0 -1 0
vn 0 -1 0
vn 0 0 1
vn 0 0 1
vn 0 -1 0
vn 0.9999652795861222 0.008333043996551017 0
vn -0.9999652795861222 0.008333043996551017 0
vn 0 -1 0
vn 1 0 0
vn -1 0 0
vn 0 0 1
vn 0 0 -1
vn 0 -1 0
vn 0 0 1
vn 0 -1 0
vn 0 0 -1
vn -1 0 0
vn 0 0.7071067811865476 0.7071067811865476
vn 0 -0.7071067811865476 -0.7071067811865476
vn 1 0 0
usemtl m_3b8ef540-1a3c-a114-21bd-395ece0e7ccc
f 1/1/1 2/2/1 3/3/1 4/4/1
f 5/5/2 6/6/2 7/7/2 8/8/2
f 1/9/3 9/10/3 10/11/3 2/12/3
f 3/13/4 11/14/4 12/15/4 4/16/4
f 4/17/5 12/18/5 9/19/5 1/20/5
f 6/21/6 13/22/6 14/23/6 7/24/6
f 13/25/7 10/26/7 9/27/7 14/28/7
f 7/29/8 14/30/8 15/31/8 8/32/8
f 14/33/9 9/34/9 12/35/9 15/36/9
f 8/37/10 15/38/10 16/39/10 5/40/10
f 17/41/11 18/42/11 19/43/11 20/44/11
f 21/45/12 22/46/12 15/47/12 12/48/12
f 23/49/13 21/50/13 12/51/13 11/52/13
f 22/53/14 24/54/14 16/55/14 15/56/14
f 18/57/15 17/58/15 22/59/15 21/60/15
f 25/61/16 26/62/16 27/63/16 28/64/16
f 29/65/17 30/66/17 31/67/17 32/68/17
f 30/69/18 29/70/18 17/71/18 20/72/18
f 32/73/19 31/74/19 24/75/19 22/76/19
f 29/77/20 32/78/20 22/79/20 17/80/20
f 26/81/21 25/82/21 19/83/21 18/84/21
f 27/85/22 26/86/22 18/87/22 21/88/22
f 28/89/23 27/90/23 21/91/23 23/92/23
f 33/93/24 34/94/24 35/95/24 36/96/24
f 37/97/25 38/98/25 39/99/25 40/100/25
f 38/101/26 34/102/26 33/103/26 39/104/26
f 36/105/27 35/106/27 37/107/27 40/108/27
f 35/109/28 34/110/28 38/111/28 37/112/28
f 39/113/29 33/114/29 36/115/29 40/116/29
f 41/117/30 42/118/30 43/119/30 44/120/30
f 45/121/31 46/122/31 47/123/31 48/124/31
f 41/125/32 49/126/32 50/127/32 42/128/32
f 43/129/33 51/130/33 52/131/33 44/132/33
f 44/133/34 52/134/34 49/135/34 41/136/34
f 46/137/35 53/138/35 54/139/35 47/140/35
f 53/141/36 50/142/36 49/143/36 54/144/36
f 47/145/37 54/146/37 55/147/37 48/148/37
f 54/149/38 49/150/38 52/151/38 55/152/38
f 48/153/39 55/154/39 56/155/39 45/156/39
f 57/157/40 58/158/40 59/159/40 60/160/40
f 61/161/41 62/162/41 55/163/41 52/164/41
f 63/165/42 61/166/42 52/167/42 51/168/42
f 62/169/43 64/170/43 56/171/43 55/172/43
f 58/173/44 57/174/44 62/175/44 61/176/44
f 65/177/45 66/178/45 67/179/45 68/180/45
f 69/181/46 70/182/46 71/183/46 72/184/46
f 70/185/47 69/186/47 57/187/47 60/188/47
f 72/189/48 71/190/48 64/191/48 62/192/48
f 69/193/49 72/194/49 62/195/49 57/196/49
f 66/197/50 65/198/50 59/199/50 58/200/50
f 67/201/51 66/202/51 58/203/51 61/204/51
f 68/205/52 67/206/52 61/207/52 63/208/52
f 73/209/53 74/210/53 75/211/53 76/212/53
f 77/213/54 78/214/54 73/215/54 76/216/54
f 74/217/55 79/218/55 80/219/55 75/220/55
f 79/221/56 78/222/56 77/223/56 80/224/56