# Blender 4.5.3 LTS
# www.blender.org
mtllib railingstairs.mtl
o RailingStairs
v -0.437500 0.812500 0.500000
v 0.437500 1.812500 0.500000
v 0.437500 1.812500 0.437500
v -0.500000 -0.000000 0.500000
v 0.500000 1.000000 0.437500
v -0.500000 -0.000000 0.437500
v 0.437500 1.000000 0.500000
v 0.500000 1.937500 0.500000
v -0.500000 0.937500 0.500000
v 0.500000 1.937500 0.437500
v -0.500000 0.937500 0.437500
v -0.437500 0.937500 0.500000
v -0.437500 0.937500 0.437500
v 0.437500 1.937500 0.500000
v 0.437500 1.937500 0.437500
v -0.437500 0.812500 0.437500
v -0.437500 0.562500 0.437500
v -0.437500 0.562500 0.500000
v -0.437500 0.625000 0.437500
v -0.437500 0.625000 0.500000
v 0.437500 1.562500 0.437500
v 0.437500 1.562500 0.500000
v 0.437500 1.625000 0.437500
v 0.437500 1.625000 0.500000
v -0.437500 0.000000 -0.500000
v -0.437500 0.812500 -0.500000
v 0.437500 1.812500 -0.500000
v 0.437500 1.812500 -0.437500
v -0.500000 0.000000 -0.500000
v 0.500000 1.000000 -0.437500
v -0.500000 0.000000 -0.437500
v 0.437500 1.000000 -0.500000
v 0.437500 1.000000 -0.437500
v 0.500000 1.937500 -0.500000
v -0.500000 0.937500 -0.500000
v 0.500000 1.937500 -0.437500
v -0.500000 0.937500 -0.437500
v -0.437500 0.937500 -0.500000
v -0.437500 0.937500 -0.437500
v 0.437500 1.937500 -0.500000
v 0.437500 1.937500 -0.437500
v -0.437500 0.812500 -0.437500
v -0.437500 0.562500 -0.437500
v -0.437500 0.562500 -0.500000
v -0.437500 0.625000 -0.437500
v -0.437500 0.625000 -0.500000
v 0.437500 1.562500 -0.437500
v 0.437500 1.562500 -0.500000
v 0.437500 1.625000 -0.437500
v 0.437500 1.625000 -0.500000
v 0.500000 1.000000 0.500000
v 0.437500 1.000000 0.437500
v 0.500000 1.000000 -0.500000
v -0.437500 -0.000000 0.437500
v -0.437500 -0.000000 0.500000
v -0.437500 0.125000 0.437500
v -0.437500 0.125000 0.500000
v 0.437500 1.125000 0.437500
v 0.437500 1.125000 0.500000
v -0.437500 0.000000 -0.437500
v -0.437500 0.125000 -0.437500
v -0.437500 0.125000 -0.500000
v 0.437500 1.125000 -0.437500
v 0.437500 1.125000 -0.500000
vn -1.0000 -0.0000 -0.0000
vn 1.0000 -0.0000 -0.0000
vn -0.0000 -1.0000 -0.0000
vn -0.4132 0.9106 -0.0000
vn -0.0000 1.0000 -0.0000
vn -0.0000 -0.0000 1.0000
vn -0.0000 -0.0000 -1.0000
vn 0.7526 -0.6585 -0.0000
vn -0.7526 0.6585 -0.0000
vt 1.000000 0.000000
vt 0.937500 0.812500
vt 0.937500 0.000000
vt 0.062500 0.000000
vt 0.000000 0.000000
vt 0.000000 0.812500
vt 1.000000 0.812500
vt 0.062500 0.812500
vt 0.000000 0.000001
vt -0.000000 0.062500
vt 0.062500 0.062500
vt 0.062500 1.000000
vt 0.062500 0.937500
vt 0.000000 0.937500
vt 1.000000 0.937500
vt 0.937500 1.000000
vt 1.000000 1.000000
vt 0.937500 0.937500
vt 0.062500 0.562500
vt 0.937500 0.625000
vt 0.062500 0.625000
vt 0.937500 0.562500
vt 0.000000 1.000000
vt 0.066667 -0.000000
vt 0.062500 0.500000
vt 0.937500 0.500000
s 1
f 7/1/1 3/2/1 52/3/1
f 55/4/2 54/5/2 16/6/2
f 7/1/1 2/7/1 3/2/1
f 55/4/2 16/6/2 1/8/2
f 4/9/3 6/10/3 54/11/3
f 13/12/4 11/13/5 9/14/5
f 8/15/5 15/16/4 14/17/4
f 55/5/6 12/14/6 9/13/6
f 5/4/2 8/14/2 51/5/2
f 52/5/7 10/13/7 5/4/7
f 54/1/7 6/3/7 11/18/7
f 6/1/1 4/3/1 9/18/1
f 7/1/6 8/18/6 14/15/6
f 16/2/7 13/18/7 15/13/7
f 16/18/8 3/13/8 2/12/8
f 12/13/6 1/8/6 2/2/6
f 12/12/4 14/16/4 15/18/4
f 18/19/6 24/20/6 20/21/6
f 17/22/8 22/21/8 18/20/8
f 19/19/9 20/21/9 24/20/9
f 19/21/7 21/22/7 17/19/7
f 4/9/3 54/11/3 55/4/3
f 13/12/4 9/14/5 12/23/4
f 8/15/5 10/18/5 15/16/4
f 55/5/6 9/13/6 4/4/6
f 5/4/2 10/13/2 8/14/2
f 52/5/7 15/14/7 10/13/7
f 54/1/7 11/18/7 13/15/7
f 6/1/1 9/18/1 11/15/1
f 7/1/6 51/3/6 8/18/6
f 16/2/7 15/13/7 3/8/7
f 16/18/8 2/12/8 1/16/8
f 12/13/6 2/2/6 14/18/6
f 12/12/4 15/18/4 13/13/4
f 18/19/6 22/22/6 24/20/6
f 17/22/8 21/19/8 22/21/8
f 19/19/9 24/20/9 23/22/9
f 19/21/7 23/20/7 21/22/7
f 32/4/1 33/5/1 28/6/1
f 25/1/2 42/2/2 60/3/2
f 32/4/1 28/6/1 27/8/1
f 25/1/2 26/7/2 42/2/2
f 29/9/3 60/11/3 31/10/3
f 39/12/4 35/14/5 37/13/5
f 34/15/5 40/17/4 41/16/4
f 25/3/7 35/15/7 38/18/7
f 30/1/2 53/3/2 34/18/2
f 33/3/6 30/1/6 36/15/6
f 60/4/6 37/14/6 31/5/6
f 31/24/1 35/14/1 29/5/1
f 32/4/7 40/13/7 34/14/7
f 42/8/6 41/18/6 39/13/6
f 42/18/8 27/12/8 28/13/8
f 38/18/7 27/8/7 26/2/7
f 38/12/4 41/18/4 40/16/4
f 44/22/7 46/20/7 50/21/7
f 43/22/8 44/20/8 48/21/8
f 45/19/9 50/20/9 46/21/9
f 45/21/6 43/19/6 47/22/6
f 29/9/3 25/4/3 60/11/3
f 39/12/4 38/23/4 35/14/5
f 34/15/5 41/16/4 36/18/5
f 25/3/7 29/1/7 35/15/7
f 30/1/2 34/18/2 36/15/2
f 33/3/6 36/15/6 41/18/6
f 60/4/6 39/13/6 37/14/6
f 31/24/1 37/13/1 35/14/1
f 32/4/7 34/14/7 53/5/7
f 42/8/6 28/2/6 41/18/6
f 42/18/8 26/16/8 27/12/8
f 38/18/7 40/13/7 27/8/7
f 38/12/4 39/13/4 41/18/4
f 44/22/7 50/21/7 48/19/7
f 43/22/8 48/21/8 47/19/8
f 45/19/9 49/22/9 50/20/9
f 45/21/6 47/22/6 49/20/6
f 52/3/3 5/1/3 51/5/3
f 53/5/3 33/3/3 32/4/3
f 52/3/3 51/5/3 7/1/3
f 53/5/3 30/1/3 33/3/3
f 55/25/6 59/20/6 57/21/6
f 54/20/8 7/19/8 55/22/8
f 56/19/9 57/21/9 59/20/9
f 56/20/7 52/25/7 54/26/7
f 55/25/6 7/26/6 59/20/6
f 54/20/8 52/21/8 7/19/8
f 56/19/9 59/20/9 58/22/9
f 56/20/7 58/21/7 52/25/7
f 25/26/7 62/20/7 64/21/7
f 60/22/8 25/20/8 32/21/8
f 61/19/9 64/20/9 62/21/9
f 61/21/6 60/25/6 33/26/6
f 25/26/7 64/21/7 32/25/7
f 60/22/8 32/21/8 33/19/8
f 61/19/9 63/22/9 64/20/9
f 61/21/6 33/26/6 63/20/6
o RailingSteps
v 0.000000 0.875000 0.437500
v -0.000000 0.875000 -0.437500
v 0.500000 1.000000 0.437500
v 0.500000 0.875000 0.437500
v 0.500000 1.000000 -0.437500
v 0.500000 0.875000 -0.437500
v 0.000000 1.000000 0.437500
v -0.000000 1.000000 -0.437500
v 0.000000 0.500000 0.437500
v -0.000000 0.500000 -0.437500
v -0.500000 0.500000 0.437500
v -0.500000 0.500000 -0.437500
v -0.000000 0.375000 -0.437500
v 0.000000 0.375000 0.437500
v -0.500000 0.375000 -0.437500
v -0.500000 0.375000 0.437500
vn -0.0000 -0.0000 -1.0000
vn 1.0000 -0.0000 -0.0000
vn -0.0000 -0.0000 1.0000
vn -1.0000 -0.0000 -0.0000
vn -0.0000 1.0000 -0.0000
vn -0.0000 -1.0000 -0.0000
vt 0.500000 1.000000
vt 0.000000 1.000000
vt 0.000000 0.875000
vt 0.937500 1.000000
vt 0.062500 1.000000
vt 0.062500 0.875000
vt 1.000000 0.875000
vt 0.500000 0.875000
vt 0.937500 0.500000
vt 0.062500 0.500000
vt 1.000000 0.125000
vt 0.500000 0.125000
vt 0.500000 0.000000
vt 0.062500 0.000000
vt 0.937500 0.125000
vt 0.062500 0.125000
vt 0.000000 0.125000
vt 0.937500 0.000000
vt 0.937500 0.875000
vt 1.000000 1.000000
vt 1.000000 0.000000
vt 0.000000 0.000000
s 1
f 72/27/10 69/28/10 70/29/10
f 69/30/11 67/31/11 68/32/11
f 67/33/12 71/34/12 65/27/12
f 71/30/13 72/31/13 66/32/13
f 71/35/14 67/30/14 69/31/14
f 70/30/15 68/31/15 65/36/15
f 76/37/10 74/38/10 77/39/10
f 77/35/15 78/36/15 80/40/15
f 75/41/13 76/42/13 79/40/13
f 73/43/12 75/38/12 80/39/12
f 74/41/11 73/42/11 78/40/11
f 75/44/14 73/35/14 74/36/14
f 72/27/10 70/29/10 66/34/10
f 69/30/11 68/32/11 70/45/11
f 67/33/12 65/27/12 68/46/12
f 71/30/13 66/32/13 65/45/13
f 71/35/14 69/31/14 72/36/14
f 70/30/15 65/36/15 66/35/15
f 76/37/10 77/39/10 79/47/10
f 77/35/15 80/40/15 79/44/15
f 75/41/13 79/40/13 80/44/13
f 73/43/12 80/39/12 78/48/12
f 74/41/11 78/40/11 77/44/11
f 75/44/14 74/36/14 76/40/14
